<?xml version="1.0" encoding="UTF-8" standalone="no"?>
<svg
   version="1.1"
   viewBox="0.00 0.00 1024.00 1024.00"
   id="svg228"
   sodipodi:docname="_35b49d71-215e-4bd7-9dd1-fc4db54d4a39.svg"
   inkscape:version="1.2.2 (b0a8486541, 2022-12-01)"
   inkscape:export-filename="_35b49d71-215e-4bd7-9dd1-fc4db54d4a39.png"
   inkscape:export-xdpi="201.66"
   inkscape:export-ydpi="201.66"
   xmlns:inkscape="http://www.inkscape.org/namespaces/inkscape"
   xmlns:sodipodi="http://sodipodi.sourceforge.net/DTD/sodipodi-0.dtd"
   xmlns="http://www.w3.org/2000/svg"
   xmlns:svg="http://www.w3.org/2000/svg">
  <defs
     id="defs232" />
  <sodipodi:namedview
     id="namedview230"
     pagecolor="#ffffff"
     bordercolor="#111111"
     borderopacity="1"
     inkscape:showpageshadow="0"
     inkscape:pageopacity="0"
     inkscape:pagecheckerboard="1"
     inkscape:deskcolor="#d1d1d1"
     showgrid="false"
     inkscape:zoom="0.85449219"
     inkscape:cx="531.30971"
     inkscape:cy="504.97829"
     inkscape:window-width="1866"
     inkscape:window-height="1016"
     inkscape:window-x="1974"
     inkscape:window-y="27"
     inkscape:window-maximized="1"
     inkscape:current-layer="g148" />
  <g
     stroke-width="2.00"
     fill="none"
     stroke-linecap="butt"
     id="g148">
    <path
       stroke="#9387a8"
       vector-effect="non-scaling-stroke"
       d="   M 337.11 290.69   C 300.06 334.70 278.18 386.93 268.52 443.51   Q 258.55 501.88 259.54 558.51   C 260.05 588.12 260.56 617.06 265.70 646.34   Q 269.05 665.47 270.75 672.25   C 276.81 696.51 284.58 722.09 296.00 744.39   C 310.92 773.49 328.58 799.21 351.73 822.36   C 381.54 852.17 422.28 875.03 464.06 882.12   Q 522.01 891.97 580.47 883.54   Q 611.56 879.05 636.76 868.53   C 731.87 828.81 774.95 728.02 772.64 630.33   Q 772.63 629.84 773.13 629.88   C 787.43 631.05 799.39 620.33 806.82 609.30   C 825.86 581.05 809.92 546.59 776.82 541.23   A 0.62 0.62 0.0 0 1 776.30 540.71   C 772.24 516.36 764.32 493.16 749.69 473.02   Q 738.53 457.65 733.62 453.13   Q 720.95 441.46 706.52 431.55   A 1.61 1.60 -54.4 0 1 706.15 429.27   C 706.90 428.27 707.45 426.81 707.71 425.46   C 712.74 398.63 712.19 371.26 702.89 345.61   C 697.11 329.67 686.93 314.23 676.46 300.76   Q 674.02 297.62 669.97 287.99   Q 669.78 287.55 670.25 287.44   Q 672.00 287.00 672.74 286.49   C 696.90 269.65 699.89 233.62 679.05 213.20   C 664.14 198.59 641.72 197.88 626.23 211.99   Q 619.37 218.24 613.30 227.52   Q 613.02 227.94 612.60 227.66   C 603.80 221.78 594.67 215.18 585.95 210.50   Q 543.25 187.58 494.01 189.35   C 475.99 189.99 455.33 192.34 437.70 198.60   Q 415.83 206.37 395.08 219.38   Q 394.01 220.05 393.24 219.05   C 377.93 199.22 352.42 195.56 333.78 213.02   C 313.52 231.99 307.78 260.32 326.32 282.86   Q 330.11 287.47 336.97 290.17   Q 337.41 290.34 337.11 290.69"
       id="path2" />
    <path
       stroke="#1564a7"
       vector-effect="non-scaling-stroke"
       d="   M 401.69 235.57   C 406.39 249.95 400.17 260.72 388.92 269.42   C 379.42 276.78 366.70 285.10 357.95 293.25   Q 343.44 306.77 332.42 323.43   C 326.13 332.95 317.24 346.63 311.61 358.52   C 292.11 399.76 282.39 445.74 278.16 492.03   Q 275.42 522.05 275.00 536.50   Q 274.05 568.54 277.43 613.81   Q 279.01 634.90 284.16 660.23   C 287.25 675.43 289.98 687.51 294.79 700.74   Q 302.53 722.06 305.26 727.75   Q 314.82 747.71 326.65 766.37   C 333.03 776.43 340.45 785.52 348.30 795.20   C 381.31 835.89 429.39 861.67 481.25 867.97   C 544.72 875.68 614.64 869.97 668.80 832.30"
       id="path12" />
    <path
       stroke="#1587a8"
       vector-effect="non-scaling-stroke"
       d="   M 668.80 832.30   Q 707.45 804.60 727.92 762.42   C 739.77 738.01 748.22 712.35 752.29 686.23"
       id="path14" />
    <path
       stroke="#1564a7"
       vector-effect="non-scaling-stroke"
       d="   M 752.29 686.23   Q 757.95 653.94 756.15 621.07   Q 756.12 620.51 755.59 620.35   C 751.76 619.24 750.98 622.04 748.71 623.96   C 735.04 635.51 718.97 649.65 712.23 666.02   Q 709.28 673.18 706.80 685.77"
       id="path16" />
    <path
       stroke="#1587a8"
       vector-effect="non-scaling-stroke"
       d="   M 706.80 685.77   C 704.10 699.60 703.64 714.14 702.81 728.21   C 702.25 737.74 695.40 747.08 688.19 752.75   A 1.93 1.92 64.4 0 0 687.50 754.72   C 689.74 764.06 683.60 774.59 675.73 779.47   C 672.08 781.73 664.46 782.68 661.87 786.71   Q 661.58 787.15 661.94 787.53   Q 663.24 788.90 664.41 790.33   Q 664.55 790.50 664.51 790.69   Q 664.46 790.99 664.24 790.79   L 661.45 788.26   Q 661.04 787.88 660.50 788.02   Q 658.62 788.53 658.89 790.51   C 661.31 808.00 631.80 795.09 625.76 792.87   Q 621.69 791.36 616.96 790.36   Q 601.63 787.10 586.63 782.60   C 576.25 779.49 576.87 775.64 575.65 765.81   Q 574.00 752.39 569.24 736.87   C 555.95 693.46 515.05 668.26 473.51 657.38   Q 465.42 655.26 457.32 653.16   C 448.47 650.87 447.99 646.10 447.83 638.00   C 447.54 622.33 446.35 611.28 449.01 599.51   C 451.15 590.02 459.60 578.26 470.76 580.24   C 502.24 585.85 536.39 577.83 565.82 566.59   C 573.64 563.60 583.17 558.61 588.22 551.74   C 590.64 548.43 590.26 545.70 588.33 542.02   Q 585.47 536.57 582.47 531.04   A 1.36 1.34 84.9 0 0 581.74 530.42   C 573.88 527.69 561.28 531.55 562.22 518.53   C 562.38 516.28 563.86 513.95 564.74 511.78   Q 564.92 511.34 564.60 510.99   C 552.86 498.10 536.03 497.39 520.55 491.91   C 487.69 480.27 457.83 468.80 429.09 449.66   C 426.57 447.98 422.38 443.91 422.28 440.60   C 422.14 436.06 426.13 433.02 430.35 432.11"
       id="path18" />
    <path
       stroke="#9387a8"
       vector-effect="non-scaling-stroke"
       d="   M 430.35 432.11   Q 434.28 433.26 436.95 435.05   C 443.99 439.76 450.95 444.55 458.39 448.41   Q 490.46 465.08 524.73 476.82   Q 525.21 476.98 525.50 476.56   Q 537.10 459.82 552.64 446.91   C 563.00 438.31 575.57 432.02 588.06 426.42   C 614.33 414.65 644.20 412.71 672.34 418.64   Q 676.57 419.53 693.00 424.13   Q 693.47 424.26 693.52 423.78   Q 695.81 404.63 696.01 390.99   C 696.42 363.00 686.40 339.08 670.16 316.38   C 662.28 305.36 656.65 292.82 648.58 282.36   C 600.27 219.76 519.14 183.40 441.50 212.50   Q 418.45 221.14 400.72 232.19   Q 399.36 233.03 399.56 233.87   Q 399.79 234.85 401.69 235.57"
       id="path20" />
    <path
       stroke="#7ffefc"
       vector-effect="non-scaling-stroke"
       d="   M 430.35 432.11   Q 423.67 428.84 417.05 425.54   C 404.95 419.51 397.59 406.34 396.03 393.39   C 394.82 383.30 398.33 368.25 401.95 359.02   Q 414.97 325.76 438.66 293.61   C 443.88 286.53 449.93 280.55 457.47 277.69   Q 462.68 275.72 468.80 278.19"
       id="path22" />
    <path
       stroke="#9387a8"
       vector-effect="non-scaling-stroke"
       d="   M 468.80 278.19   C 452.87 280.60 445.08 298.66 442.74 312.49   Q 439.67 330.67 441.19 346.74   C 441.29 347.88 440.87 348.62 440.74 349.74   Q 440.64 350.54 441.24 349.99   C 461.90 331.08 489.11 329.23 508.77 351.03   Q 509.15 351.45 509.49 351.00   Q 510.00 350.30 509.58 349.35"
       id="path24" />
    <path
       stroke="#7ffefc"
       vector-effect="non-scaling-stroke"
       d="   M 509.58 349.35   C 521.22 336.56 534.28 327.03 548.26 317.03   C 553.43 313.33 571.25 303.50 577.43 305.82   C 587.26 309.52 599.16 313.56 604.58 320.59   Q 607.21 324.00 610.69 326.19"
       id="path26" />
    <path
       stroke="#9387a8"
       vector-effect="non-scaling-stroke"
       d="   M 610.69 326.19   C 612.05 329.61 616.48 336.42 621.02 335.66   C 636.84 333.02 651.55 338.53 663.58 348.92   Q 664.66 349.86 667.02 351.21   Q 667.51 351.49 667.31 350.97   L 666.21 348.06"
       id="path28" />
    <path
       stroke="#feb6c9"
       vector-effect="non-scaling-stroke"
       d="   M 666.21 348.06   L 665.02 342.23"
       id="path30" />
    <path
       stroke="#9387a8"
       vector-effect="non-scaling-stroke"
       d="   M 665.02 342.23   C 663.03 326.57 659.18 305.72 649.06 293.46   Q 643.86 287.16 636.01 285.28"
       id="path32" />
    <path
       stroke="#7ffefc"
       vector-effect="non-scaling-stroke"
       d="   M 636.01 285.28   Q 617.62 259.92 595.18 244.57   C 554.52 216.74 503.90 210.10 455.43 216.14   Q 449.00 216.94 442.31 218.87   C 431.31 222.05 420.74 224.75 410.56 230.10"
       id="path34" />
    <path
       stroke="#7fdbfb"
       vector-effect="non-scaling-stroke"
       d="   M 410.56 230.10   Q 404.98 232.05 401.69 235.57"
       id="path36" />
    <path
       stroke="#1587a8"
       vector-effect="non-scaling-stroke"
       d="   M 636.01 285.28   Q 628.90 286.19 626.16 288.66   C 616.04 297.77 611.54 312.68 610.69 326.19"
       id="path38" />
    <path
       stroke="#1587a8"
       vector-effect="non-scaling-stroke"
       d="   M 509.58 349.35   Q 508.44 344.17 507.33 338.78   C 504.75 326.19 500.30 314.15 494.99 302.46   C 490.48 292.55 480.50 278.99 468.80 278.19"
       id="path40" />
    <path
       stroke="#01dbfb"
       vector-effect="non-scaling-stroke"
       d="   M 706.80 685.77   Q 707.68 685.12 708.99 685.24   Q 709.52 685.29 709.64 684.78   C 712.39 673.73 728.34 669.06 737.93 670.07   C 746.00 670.91 749.31 677.83 750.18 685.08   Q 750.29 686.04 750.77 686.21   Q 751.31 686.39 752.29 686.23"
       id="path42" />
    <path
       stroke="#01dbfb"
       vector-effect="non-scaling-stroke"
       d="   M 668.80 832.30   Q 666.09 831.62 664.94 828.98   Q 662.05 822.38 658.98 817.97   A 0.66 0.66 0.0 0 0 658.12 817.77   C 636.25 830.17 609.78 836.71 585.01 840.08   Q 564.55 842.86 550.94 843.19   C 485.48 844.76 413.18 812.30 373.54 759.42   C 372.46 757.98 371.04 756.58 369.84 755.16"
       id="path44" />
    <path
       stroke="#01e9fe"
       vector-effect="non-scaling-stroke"
       d="   M 369.84 755.16   L 368.62 753.63   Q 368.22 753.13 368.77 752.81   L 374.91 749.14   A 0.71 0.69 71.5 0 0 375.24 748.46   Q 374.97 745.91 373.55 743.72   Q 367.27 734.02 361.89 723.81   Q 345.87 693.37 331.99 661.89   C 320.18 635.08 312.08 608.46 307.25 586.75   C 302.75 566.55 300.08 540.39 296.87 516.57   C 296.40 513.05 296.49 509.74 296.49 506.23"
       id="path46" />
    <path
       stroke="#01dbfb"
       vector-effect="non-scaling-stroke"
       d="   M 296.49 506.23   C 298.37 445.72 308.81 385.91 337.37 333.24   C 345.59 318.07 356.25 304.43 368.96 293.45   Q 380.63 283.36 388.59 275.93   C 394.64 270.28 420.86 240.41 411.11 232.34   A 0.96 0.95 -69.5 0 1 410.76 231.56   Q 410.79 230.66 410.56 230.10"
       id="path48" />
    <path
       stroke="#943f75"
       vector-effect="non-scaling-stroke"
       d="   M 665.02 342.23   Q 664.85 345.62 666.21 348.06"
       id="path50" />
    <path
       stroke="#01c6fd"
       vector-effect="non-scaling-stroke"
       d="   M 296.49 506.23   C 295.94 508.70 295.35 511.09 295.27 513.64   C 294.44 539.10 293.48 564.78 294.17 590.24   C 294.82 614.31 298.41 638.29 303.85 661.73   C 309.13 684.47 316.85 707.09 328.17 727.57   Q 343.11 754.55 361.79 778.65   A 0.75 0.75 0.0 0 0 363.12 778.30   L 365.09 765.66   Q 365.16 765.22 365.02 764.80   Q 364.27 762.56 365.45 760.48   A 1.56 1.54 -38.8 0 0 365.59 759.29   Q 364.79 756.61 367.13 755.21   Q 367.65 754.89 368.09 755.32   L 368.90 756.13   Q 369.02 756.25 369.01 756.08   Q 369.00 755.89 369.01 755.69   Q 369.04 755.40 369.33 755.38   Q 369.62 755.36 369.84 755.16"
       id="path52" />
    <path
       stroke="#943f75"
       vector-effect="non-scaling-stroke"
       d="   M 652.13 263.03   C 655.60 267.51 662.64 276.49 668.68 269.67   C 679.19 257.79 679.78 238.62 669.37 226.57   C 658.51 214.01 641.06 216.22 631.61 228.81   Q 629.49 231.63 627.78 233.76   A 1.80 1.80 0.0 0 0 627.85 236.10   C 636.14 245.12 644.82 253.56 652.13 263.03"
       id="path54" />
    <path
       stroke="#943f75"
       vector-effect="non-scaling-stroke"
       d="   M 338.19 271.31   C 343.44 276.28 349.64 277.16 355.52 272.91   Q 368.38 263.63 380.94 253.94   C 383.63 251.87 385.04 249.58 384.69 245.97   C 383.93 238.21 380.05 225.04 372.20 221.29   Q 357.47 214.26 345.35 224.84   C 332.41 236.13 323.64 257.56 338.19 271.31"
       id="path56" />
    <path
       stroke="#91632b"
       vector-effect="non-scaling-stroke"
       d="   M 584.74 444.53   C 568.53 452.65 550.01 465.60 541.21 481.83   A 0.66 0.66 0.0 0 0 541.62 482.78   L 547.08 484.32"
       id="path58" />
    <path
       stroke="#936c46"
       vector-effect="non-scaling-stroke"
       d="   M 547.08 484.32   Q 556.59 487.14 565.40 491.15   Q 570.29 493.37 585.96 496.96   C 598.70 499.88 608.60 520.43 611.36 531.87"
       id="path60" />
    <path
       stroke="#9387a8"
       vector-effect="non-scaling-stroke"
       d="   M 611.36 531.87   Q 614.96 543.64 608.66 552.83   Q 608.36 553.27 608.58 553.76   Q 612.12 561.60 616.94 568.71   Q 617.24 569.15 617.57 568.73   L 627.87 555.35   A 1.04 1.04 0.0 0 0 627.30 553.70   Q 620.66 552.00 621.90 545.02"
       id="path62" />
    <path
       stroke="#936c46"
       vector-effect="non-scaling-stroke"
       d="   M 621.90 545.02   C 624.62 527.56 647.42 529.20 649.98 545.45"
       id="path64" />
    <path
       stroke="#9387a8"
       vector-effect="non-scaling-stroke"
       d="   M 649.98 545.45   L 650.43 551.27   Q 650.48 551.83 650.00 552.12   Q 648.54 553.00 646.87 552.67   Q 645.99 552.50 646.42 553.28   Q 651.49 562.62 659.38 569.70   Q 659.83 570.11 660.22 569.64   Q 665.88 562.91 669.64 554.93   Q 669.86 554.45 669.39 554.21   Q 662.22 550.59 662.85 543.45"
       id="path66" />
    <path
       stroke="#936c46"
       vector-effect="non-scaling-stroke"
       d="   M 662.85 543.45   C 664.56 532.92 673.53 531.60 682.61 533.66"
       id="path68" />
    <path
       stroke="#9387a8"
       vector-effect="non-scaling-stroke"
       d="   M 682.61 533.66   Q 690.28 538.88 689.29 549.35   Q 689.08 551.58 687.18 551.81   Q 686.67 551.88 686.81 552.38   C 687.74 555.67 689.21 559.27 688.07 562.77   Q 687.93 563.21 687.46 563.22   Q 685.82 563.25 684.82 564.57   C 672.82 580.20 661.22 596.34 649.46 612.01   A 6.01 5.96 -26.8 0 0 648.26 615.60   L 648.27 633.51"
       id="path70" />
    <path
       stroke="#936c46"
       vector-effect="non-scaling-stroke"
       d="   M 648.27 633.51   L 648.34 655.45"
       id="path72" />
    <path
       stroke="#91632b"
       vector-effect="non-scaling-stroke"
       d="   M 648.34 655.45   L 648.21 690.41   Q 648.21 690.90 648.70 690.94   C 662.53 691.90 675.35 690.15 688.63 689.04   Q 689.14 689.00 689.12 688.49   Q 688.09 660.94 707.14 641.39   Q 722.97 625.15 739.93 609.03   A 1.68 1.68 0.0 0 0 739.89 606.55   C 727.18 595.25 728.61 575.96 736.09 562.25"
       id="path74" />
    <path
       stroke="#936c46"
       vector-effect="non-scaling-stroke"
       d="   M 736.09 562.25   C 740.64 553.70 746.32 547.64 755.83 544.88"
       id="path76" />
    <path
       stroke="#9387a8"
       vector-effect="non-scaling-stroke"
       d="   M 755.83 544.88   L 760.96 544.05   Q 761.47 543.97 761.37 543.46   C 757.80 526.17 752.98 508.75 744.24 493.28   C 732.37 472.26 715.82 452.59 693.62 442.10   C 658.05 425.31 619.59 428.19 584.74 444.53"
       id="path78" />
    <path
       stroke="#fde39a"
       vector-effect="non-scaling-stroke"
       d="   M 755.83 544.88   L 755.60 541.73"
       id="path80" />
    <path
       stroke="#fbdb7f"
       vector-effect="non-scaling-stroke"
       d="   M 755.60 541.73   L 752.03 518.27"
       id="path82" />
    <path
       stroke="#fde39a"
       vector-effect="non-scaling-stroke"
       d="   M 752.03 518.27   L 751.05 515.26"
       id="path84" />
    <path
       stroke="#fbdb7f"
       vector-effect="non-scaling-stroke"
       d="   M 751.05 515.26   Q 749.61 507.38 745.71 499.96"
       id="path86" />
    <path
       stroke="#fde39a"
       vector-effect="non-scaling-stroke"
       d="   M 745.71 499.96   C 744.82 498.55 744.57 496.83 743.68 495.39   Q 737.85 485.95 731.43 476.89   C 729.43 474.06 726.87 472.77 723.63 474.17   A 0.90 0.90 0.0 0 0 723.27 475.55   Q 733.98 489.44 742.19 503.92"
       id="path88" />
    <path
       stroke="#fbdb7f"
       vector-effect="non-scaling-stroke"
       d="   M 742.19 503.92   C 740.56 509.99 737.88 513.07 735.68 518.22   A 1.58 1.58 0.0 0 1 732.84 518.35   C 716.39 488.24 696.77 456.26 663.43 442.11   C 654.15 438.17 640.58 435.46 630.68 434.34   C 616.14 432.69 598.47 440.05 585.84 445.31   Q 585.36 445.51 585.15 445.27   Q 584.95 445.04 584.74 444.53"
       id="path90" />
    <path
       stroke="#fac01d"
       vector-effect="non-scaling-stroke"
       d="   M 742.19 503.92   Q 743.48 503.36 745.71 499.96"
       id="path92" />
    <path
       stroke="#fac01d"
       vector-effect="non-scaling-stroke"
       d="   M 751.05 515.26   Q 750.62 518.49 752.03 518.27"
       id="path94" />
    <path
       stroke="#fac01d"
       vector-effect="non-scaling-stroke"
       d="   M 755.60 541.73   Q 755.62 543.28 755.00 543.49   C 749.95 545.22 743.71 547.90 740.65 552.52   Q 738.05 556.45 735.31 560.22   Q 734.72 561.02 735.29 561.83   Q 735.63 562.33 736.09 562.25"
       id="path96" />
    <path
       stroke="#fac01d"
       vector-effect="non-scaling-stroke"
       d="   M 648.34 655.45   C 652.56 654.51 647.64 649.43 652.07 646.37   Q 671.24 633.12 690.84 620.54   C 702.71 612.93 713.66 603.73 722.03 592.68   C 730.48 581.52 728.77 562.25 727.68 549.26   Q 727.33 545.04 724.54 543.54"
       id="path98" />
    <path
       stroke="#fbdb7f"
       vector-effect="non-scaling-stroke"
       d="   M 724.54 543.54   C 724.97 516.22 704.23 490.93 682.34 476.94"
       id="path100" />
    <path
       stroke="#fac01d"
       vector-effect="non-scaling-stroke"
       d="   M 682.34 476.94   Q 681.96 476.28 682.13 475.42   Q 682.23 474.93 681.88 474.58   Q 677.14 469.88 672.33 462.16   C 664.18 449.09 652.03 444.49 636.41 444.04   Q 610.19 443.30 585.72 452.56   C 573.57 457.16 564.55 464.00 556.34 473.60   Q 554.76 475.46 551.04 478.53   C 549.06 480.17 548.39 482.16 547.08 484.32"
       id="path102" />
    <path
       stroke="#fde39a"
       vector-effect="non-scaling-stroke"
       d="   M 724.54 543.54   C 721.64 562.26 716.11 575.44 698.98 585.13   C 692.57 588.76 683.55 590.63 679.05 594.29   C 669.27 602.23 659.98 616.76 651.69 627.93   Q 649.76 630.53 649.35 632.77   Q 649.28 633.17 648.89 633.30   L 648.27 633.51"
       id="path104" />
    <path
       stroke="#fde39a"
       vector-effect="non-scaling-stroke"
       d="   M 682.34 476.94   C 677.44 474.46 672.33 471.66 667.47 470.00   C 642.76 461.60 616.34 468.38 598.89 487.91   Q 596.29 490.82 594.05 495.97   Q 593.87 496.39 594.32 496.46   C 615.04 499.31 637.78 503.30 656.94 511.58   Q 672.87 518.47 682.61 533.66"
       id="path106" />
    <path
       stroke="#fde39a"
       vector-effect="non-scaling-stroke"
       d="   M 662.85 543.45   L 649.98 545.45"
       id="path108" />
    <path
       stroke="#fde39a"
       vector-effect="non-scaling-stroke"
       d="   M 621.90 545.02   Q 614.39 545.87 614.30 537.23   Q 614.29 535.97 612.65 531.79   Q 612.50 531.40 612.12 531.56   L 611.36 531.87"
       id="path110" />
    <path
       stroke="#1572aa"
       vector-effect="non-scaling-stroke"
       d="   M 753.23 566.18   C 749.10 570.72 743.54 580.27 746.50 586.22   Q 750.37 594.01 758.37 599.20"
       id="path112" />
    <path
       stroke="#1587a8"
       vector-effect="non-scaling-stroke"
       d="   M 758.37 599.20   C 771.11 606.01 791.66 607.84 796.89 589.98   C 798.28 585.21 799.18 580.12 797.44 575.56   C 794.62 568.17 787.05 558.52 778.24 558.46   Q 763.92 558.35 753.23 566.18"
       id="path114" />
    <path
       stroke="#01e9fe"
       vector-effect="non-scaling-stroke"
       d="   M 758.37 599.20   Q 764.69 588.79 770.21 576.27   Q 770.71 575.13 769.56 574.67   C 765.59 573.07 759.33 569.53 756.92 565.46   Q 756.61 564.93 756.15 565.34   Q 753.83 567.43 753.23 566.18"
       id="path116" />
    <path
       stroke="#936c46"
       vector-effect="non-scaling-stroke"
       d="   M 581.14 577.55   C 574.10 580.10 566.71 583.72 560.41 585.74   Q 547.82 589.78 534.72 591.92   Q 534.13 592.01 534.64 592.31   Q 536.76 593.55 537.96 595.71"
       id="path118" />
    <path
       stroke="#91632b"
       vector-effect="non-scaling-stroke"
       d="   M 537.96 595.71   C 550.41 613.17 563.71 626.26 577.44 641.06   C 588.65 653.15 592.51 670.93 591.97 687.25   A 0.84 0.84 0.0 0 0 592.64 688.10   Q 611.66 691.84 631.06 691.16   Q 631.59 691.14 631.59 690.61   L 631.37 644.20"
       id="path120" />
    <path
       stroke="#936c46"
       vector-effect="non-scaling-stroke"
       d="   M 631.37 644.20   L 630.79 629.94"
       id="path122" />
    <path
       stroke="#9387a8"
       vector-effect="non-scaling-stroke"
       d="   M 630.79 629.94   L 631.27 615.50   A 4.16 4.15 -61.2 0 0 630.56 613.05   C 620.54 598.21 611.88 584.71 599.19 570.88   C 597.95 569.53 597.15 568.34 596.35 566.74   Q 596.10 566.23 595.68 566.62   Q 591.48 570.50 585.07 573.79   Q 582.45 575.13 581.14 577.55"
       id="path124" />
    <path
       stroke="#fde39a"
       vector-effect="non-scaling-stroke"
       d="   M 630.79 629.94   Q 622.93 619.72 615.64 609.77   C 605.64 596.12 595.04 586.24 581.14 577.55"
       id="path126" />
    <path
       stroke="#fac01d"
       vector-effect="non-scaling-stroke"
       d="   M 631.37 644.20   C 612.37 638.98 591.60 627.68 576.27 615.20   C 567.95 608.44 558.42 599.87 552.50 590.92   A 1.56 1.53 65.6 0 0 550.81 590.27   L 539.98 593.16   Q 539.43 593.31 539.21 593.83   Q 538.72 595.04 537.96 595.71"
       id="path128" />
    <path
       stroke="#9387a8"
       vector-effect="non-scaling-stroke"
       d="   M 652.93 582.56   C 647.05 579.63 641.02 573.09 636.51 568.30   Q 636.10 567.86 635.85 568.41   C 633.79 572.88 629.69 575.27 625.52 577.76   Q 624.32 578.47 625.25 579.50   Q 633.77 588.96 640.11 599.95   Q 640.33 600.33 640.58 599.98   L 653.09 583.24   Q 653.42 582.80 652.93 582.56"
       id="path130" />
    <path
       stroke="#155da9"
       vector-effect="non-scaling-stroke"
       d="   M 544.37 628.71   Q 530.39 613.51 518.85 596.22   A 0.44 0.43 -20.2 0 0 518.42 596.03   Q 494.89 599.73 471.00 598.58   Q 469.80 598.52 467.81 599.52   A 1.51 1.50 88.8 0 0 467.11 600.25   Q 465.37 604.07 465.11 610.01   Q 464.50 624.37 465.03 638.25   A 1.25 1.25 0.0 0 0 466.04 639.43   C 485.82 643.31 504.22 649.56 521.52 659.63   Q 533.51 666.61 540.54 671.97   C 553.21 681.60 563.42 693.47 573.63 707.11   Q 575.69 709.85 577.02 712.91   A 0.12 0.11 31.9 0 0 577.24 712.86   C 576.27 690.97 577.10 666.88 563.23 648.52   C 557.93 641.50 549.16 633.92 544.37 628.71"
       id="path132" />
    <path
       stroke="#9387a8"
       vector-effect="non-scaling-stroke"
       d="   M 594.15 703.10   C 596.71 707.88 601.52 714.06 607.00 715.28   C 618.40 717.82 629.60 717.97 643.04 718.15   Q 657.41 718.34 665.75 717.01   C 674.40 715.64 681.63 712.67 683.98 703.74   Q 684.07 703.38 683.70 703.44   Q 670.56 705.60 657.27 705.32   C 642.31 704.99 627.40 705.05 612.43 704.97   Q 603.30 704.93 594.42 702.76   Q 593.90 702.63 594.15 703.10"
       id="path134" />
    <path
       stroke="#9387a8"
       vector-effect="non-scaling-stroke"
       d="   M 593.00 723.52   C 595.28 729.63 600.93 740.14 607.32 742.18   C 621.33 746.64 637.24 746.84 652.19 746.41   C 659.19 746.21 674.43 744.30 679.54 739.04   Q 683.54 734.94 687.65 725.67   Q 687.90 725.12 687.72 724.74   A 0.53 0.53 0.0 0 0 686.92 724.54   Q 681.92 728.28 675.74 729.70   C 661.05 733.08 645.59 732.34 630.62 732.24   C 620.17 732.18 600.68 731.98 593.46 723.25   A 0.27 0.27 0.0 0 0 593.00 723.52"
       id="path136" />
    <path
       stroke="#9387a8"
       vector-effect="non-scaling-stroke"
       d="   M 604.50 756.93   C 613.29 774.25 640.77 771.10 657.22 769.52   C 663.43 768.92 672.46 765.51 673.44 758.55   Q 673.51 758.06 673.02 758.16   C 658.13 761.44 638.83 760.66 626.19 760.36   Q 615.14 760.11 604.72 756.68   Q 604.30 756.54 604.50 756.93"
       id="path138" />
    <path
       stroke="#9387a8"
       vector-effect="non-scaling-stroke"
       d="   M 572.96 363.83   Q 574.13 379.90 572.71 395.96   A 1.79 1.78 76.0 0 1 571.92 397.28   C 559.42 405.50 542.50 408.33 531.27 395.74   Q 529.68 393.95 529.80 389.84   A 1.35 1.35 0.0 0 0 529.62 389.13   C 525.78 382.03 515.31 386.17 516.75 394.04   Q 519.63 409.77 534.45 415.56   Q 558.04 424.77 578.97 410.57   Q 579.38 410.29 579.80 410.58   C 586.92 415.46 595.59 418.18 604.24 416.04   C 611.95 414.14 621.85 409.83 626.14 403.07   C 628.65 399.12 632.35 388.18 625.36 386.36   Q 621.65 385.40 618.92 387.83   A 1.20 1.20 0.0 0 0 618.52 388.68   C 618.07 397.25 608.47 401.02 601.27 402.04   Q 598.27 402.46 594.78 400.23   C 591.11 397.88 589.91 396.75 589.98 392.01   Q 590.21 377.75 590.81 363.41   Q 590.84 362.91 591.34 362.86   C 601.97 361.98 614.37 358.38 613.44 344.70   C 611.99 323.48 594.01 315.12 574.45 316.44   C 539.89 318.76 536.52 357.18 572.29 363.10   A 0.80 0.79 2.8 0 1 572.96 363.83"
       id="path140" />
    <path
       stroke="#9387a8"
       vector-effect="non-scaling-stroke"
       d="   M 454.12 326.71   C 461.25 320.97 476.43 322.71 484.99 322.88   Q 485.43 322.89 485.37 322.45   Q 483.27 306.85 472.33 295.94   C 470.75 294.36 468.72 293.97 466.75 295.34   C 458.36 301.18 457.58 310.72 456.45 319.69   C 456.08 322.56 455.52 324.37 453.77 326.35   A 0.25 0.25 0.0 0 0 454.12 326.71"
       id="path142" />
    <path
       stroke="#9387a8"
       vector-effect="non-scaling-stroke"
       d="   M 622.31 322.60   C 629.61 321.18 637.03 321.28 644.10 323.44   Q 644.60 323.59 644.54 323.07   C 643.80 316.60 640.98 305.71 635.79 301.50   A 1.29 1.29 0.0 0 0 634.92 301.21   C 629.09 301.41 624.31 317.80 622.04 322.24   Q 621.81 322.70 622.31 322.60"
       id="path144" />
    <path
       stroke="#943f75"
       vector-effect="non-scaling-stroke"
       d="   M 565.69 341.56   Q 576.61 349.72 588.87 345.22   C 591.50 344.24 597.53 340.37 594.65 336.83   C 589.14 330.07 578.15 329.34 570.32 330.75   C 566.79 331.39 564.59 333.58 562.81 336.47   A 1.24 1.22 53.8 0 0 562.67 337.44   Q 563.35 339.82 565.69 341.56"
       id="path146" />
  </g>
  <path
     fill="#290f54"
     d="   M 336.97 290.17   Q 330.11 287.47 326.32 282.86   C 307.78 260.32 313.52 231.99 333.78 213.02   C 352.42 195.56 377.93 199.22 393.24 219.05   Q 394.01 220.05 395.08 219.38   Q 415.83 206.37 437.70 198.60   C 455.33 192.34 475.99 189.99 494.01 189.35   Q 543.25 187.58 585.95 210.50   C 594.67 215.18 603.80 221.78 612.60 227.66   Q 613.02 227.94 613.30 227.52   Q 619.37 218.24 626.23 211.99   C 641.72 197.88 664.14 198.59 679.05 213.20   C 699.89 233.62 696.90 269.65 672.74 286.49   Q 672.00 287.00 670.25 287.44   Q 669.78 287.55 669.97 287.99   Q 674.02 297.62 676.46 300.76   C 686.93 314.23 697.11 329.67 702.89 345.61   C 712.19 371.26 712.74 398.63 707.71 425.46   C 707.45 426.81 706.90 428.27 706.15 429.27   A 1.61 1.60 -54.4 0 0 706.52 431.55   Q 720.95 441.46 733.62 453.13   Q 738.53 457.65 749.69 473.02   C 764.32 493.16 772.24 516.36 776.30 540.71   A 0.62 0.62 0.0 0 0 776.82 541.23   C 809.92 546.59 825.86 581.05 806.82 609.30   C 799.39 620.33 787.43 631.05 773.13 629.88   Q 772.63 629.84 772.64 630.33   C 774.95 728.02 731.87 828.81 636.76 868.53   Q 611.56 879.05 580.47 883.54   Q 522.01 891.97 464.06 882.12   C 422.28 875.03 381.54 852.17 351.73 822.36   C 328.58 799.21 310.92 773.49 296.00 744.39   C 284.58 722.09 276.81 696.51 270.75 672.25   Q 269.05 665.47 265.70 646.34   C 260.56 617.06 260.05 588.12 259.54 558.51   Q 258.55 501.88 268.52 443.51   C 278.18 386.93 300.06 334.70 337.11 290.69   Q 337.41 290.34 336.97 290.17   Z   M 401.69 235.57   C 406.39 249.95 400.17 260.72 388.92 269.42   C 379.42 276.78 366.70 285.10 357.95 293.25   Q 343.44 306.77 332.42 323.43   C 326.13 332.95 317.24 346.63 311.61 358.52   C 292.11 399.76 282.39 445.74 278.16 492.03   Q 275.42 522.05 275.00 536.50   Q 274.05 568.54 277.43 613.81   Q 279.01 634.90 284.16 660.23   C 287.25 675.43 289.98 687.51 294.79 700.74   Q 302.53 722.06 305.26 727.75   Q 314.82 747.71 326.65 766.37   C 333.03 776.43 340.45 785.52 348.30 795.20   C 381.31 835.89 429.39 861.67 481.25 867.97   C 544.72 875.68 614.64 869.97 668.80 832.30   Q 707.45 804.60 727.92 762.42   C 739.77 738.01 748.22 712.35 752.29 686.23   Q 757.95 653.94 756.15 621.07   Q 756.12 620.51 755.59 620.35   C 751.76 619.24 750.98 622.04 748.71 623.96   C 735.04 635.51 718.97 649.65 712.23 666.02   Q 709.28 673.18 706.80 685.77   C 704.10 699.60 703.64 714.14 702.81 728.21   C 702.25 737.74 695.40 747.08 688.19 752.75   A 1.93 1.92 64.4 0 0 687.50 754.72   C 689.74 764.06 683.60 774.59 675.73 779.47   C 672.08 781.73 664.46 782.68 661.87 786.71   Q 661.58 787.15 661.94 787.53   Q 663.24 788.90 664.41 790.33   Q 664.55 790.50 664.51 790.69   Q 664.46 790.99 664.24 790.79   L 661.45 788.26   Q 661.04 787.88 660.50 788.02   Q 658.62 788.53 658.89 790.51   C 661.31 808.00 631.80 795.09 625.76 792.87   Q 621.69 791.36 616.96 790.36   Q 601.63 787.10 586.63 782.60   C 576.25 779.49 576.87 775.64 575.65 765.81   Q 574.00 752.39 569.24 736.87   C 555.95 693.46 515.05 668.26 473.51 657.38   Q 465.42 655.26 457.32 653.16   C 448.47 650.87 447.99 646.10 447.83 638.00   C 447.54 622.33 446.35 611.28 449.01 599.51   C 451.15 590.02 459.60 578.26 470.76 580.24   C 502.24 585.85 536.39 577.83 565.82 566.59   C 573.64 563.60 583.17 558.61 588.22 551.74   C 590.64 548.43 590.26 545.70 588.33 542.02   Q 585.47 536.57 582.47 531.04   A 1.36 1.34 84.9 0 0 581.74 530.42   C 573.88 527.69 561.28 531.55 562.22 518.53   C 562.38 516.28 563.86 513.95 564.74 511.78   Q 564.92 511.34 564.60 510.99   C 552.86 498.10 536.03 497.39 520.55 491.91   C 487.69 480.27 457.83 468.80 429.09 449.66   C 426.57 447.98 422.38 443.91 422.28 440.60   C 422.14 436.06 426.13 433.02 430.35 432.11   Q 434.28 433.26 436.95 435.05   C 443.99 439.76 450.95 444.55 458.39 448.41   Q 490.46 465.08 524.73 476.82   Q 525.21 476.98 525.50 476.56   Q 537.10 459.82 552.64 446.91   C 563.00 438.31 575.57 432.02 588.06 426.42   C 614.33 414.65 644.20 412.71 672.34 418.64   Q 676.57 419.53 693.00 424.13   Q 693.47 424.26 693.52 423.78   Q 695.81 404.63 696.01 390.99   C 696.42 363.00 686.40 339.08 670.16 316.38   C 662.28 305.36 656.65 292.82 648.58 282.36   C 600.27 219.76 519.14 183.40 441.50 212.50   Q 418.45 221.14 400.72 232.19   Q 399.36 233.03 399.56 233.87   Q 399.79 234.85 401.69 235.57   Z   M 652.13 263.03   C 655.60 267.51 662.64 276.49 668.68 269.67   C 679.19 257.79 679.78 238.62 669.37 226.57   C 658.51 214.01 641.06 216.22 631.61 228.81   Q 629.49 231.63 627.78 233.76   A 1.80 1.80 0.0 0 0 627.85 236.10   C 636.14 245.12 644.82 253.56 652.13 263.03   Z   M 338.19 271.31   C 343.44 276.28 349.64 277.16 355.52 272.91   Q 368.38 263.63 380.94 253.94   C 383.63 251.87 385.04 249.58 384.69 245.97   C 383.93 238.21 380.05 225.04 372.20 221.29   Q 357.47 214.26 345.35 224.84   C 332.41 236.13 323.64 257.56 338.19 271.31   Z   M 584.74 444.53   C 568.53 452.65 550.01 465.60 541.21 481.83   A 0.66 0.66 0.0 0 0 541.62 482.78   L 547.08 484.32   Q 556.59 487.14 565.40 491.15   Q 570.29 493.37 585.96 496.96   C 598.70 499.88 608.60 520.43 611.36 531.87   Q 614.96 543.64 608.66 552.83   Q 608.36 553.27 608.58 553.76   Q 612.12 561.60 616.94 568.71   Q 617.24 569.15 617.57 568.73   L 627.87 555.35   A 1.04 1.04 0.0 0 0 627.30 553.70   Q 620.66 552.00 621.90 545.02   C 624.62 527.56 647.42 529.20 649.98 545.45   L 650.43 551.27   Q 650.48 551.83 650.00 552.12   Q 648.54 553.00 646.87 552.67   Q 645.99 552.50 646.42 553.28   Q 651.49 562.62 659.38 569.70   Q 659.83 570.11 660.22 569.64   Q 665.88 562.91 669.64 554.93   Q 669.86 554.45 669.39 554.21   Q 662.22 550.59 662.85 543.45   C 664.56 532.92 673.53 531.60 682.61 533.66   Q 690.28 538.88 689.29 549.35   Q 689.08 551.58 687.18 551.81   Q 686.67 551.88 686.81 552.38   C 687.74 555.67 689.21 559.27 688.07 562.77   Q 687.93 563.21 687.46 563.22   Q 685.82 563.25 684.82 564.57   C 672.82 580.20 661.22 596.34 649.46 612.01   A 6.01 5.96 -26.8 0 0 648.26 615.60   L 648.27 633.51   L 648.34 655.45   L 648.21 690.41   Q 648.21 690.90 648.70 690.94   C 662.53 691.90 675.35 690.15 688.63 689.04   Q 689.14 689.00 689.12 688.49   Q 688.09 660.94 707.14 641.39   Q 722.97 625.15 739.93 609.03   A 1.68 1.68 0.0 0 0 739.89 606.55   C 727.18 595.25 728.61 575.96 736.09 562.25   C 740.64 553.70 746.32 547.64 755.83 544.88   L 760.96 544.05   Q 761.47 543.97 761.37 543.46   C 757.80 526.17 752.98 508.75 744.24 493.28   C 732.37 472.26 715.82 452.59 693.62 442.10   C 658.05 425.31 619.59 428.19 584.74 444.53   Z   M 753.23 566.18   C 749.10 570.72 743.54 580.27 746.50 586.22   Q 750.37 594.01 758.37 599.20   C 771.11 606.01 791.66 607.84 796.89 589.98   C 798.28 585.21 799.18 580.12 797.44 575.56   C 794.62 568.17 787.05 558.52 778.24 558.46   Q 763.92 558.35 753.23 566.18   Z   M 581.14 577.55   C 574.10 580.10 566.71 583.72 560.41 585.74   Q 547.82 589.78 534.72 591.92   Q 534.13 592.01 534.64 592.31   Q 536.76 593.55 537.96 595.71   C 550.41 613.17 563.71 626.26 577.44 641.06   C 588.65 653.15 592.51 670.93 591.97 687.25   A 0.84 0.84 0.0 0 0 592.64 688.10   Q 611.66 691.84 631.06 691.16   Q 631.59 691.14 631.59 690.61   L 631.37 644.20   L 630.79 629.94   L 631.27 615.50   A 4.16 4.15 -61.2 0 0 630.56 613.05   C 620.54 598.21 611.88 584.71 599.19 570.88   C 597.95 569.53 597.15 568.34 596.35 566.74   Q 596.10 566.23 595.68 566.62   Q 591.48 570.50 585.07 573.79   Q 582.45 575.13 581.14 577.55   Z   M 652.93 582.56   C 647.05 579.63 641.02 573.09 636.51 568.30   Q 636.10 567.86 635.85 568.41   C 633.79 572.88 629.69 575.27 625.52 577.76   Q 624.32 578.47 625.25 579.50   Q 633.77 588.96 640.11 599.95   Q 640.33 600.33 640.58 599.98   L 653.09 583.24   Q 653.42 582.80 652.93 582.56   Z   M 544.37 628.71   Q 530.39 613.51 518.85 596.22   A 0.44 0.43 -20.2 0 0 518.42 596.03   Q 494.89 599.73 471.00 598.58   Q 469.80 598.52 467.81 599.52   A 1.51 1.50 88.8 0 0 467.11 600.25   Q 465.37 604.07 465.11 610.01   Q 464.50 624.37 465.03 638.25   A 1.25 1.25 0.0 0 0 466.04 639.43   C 485.82 643.31 504.22 649.56 521.52 659.63   Q 533.51 666.61 540.54 671.97   C 553.21 681.60 563.42 693.47 573.63 707.11   Q 575.69 709.85 577.02 712.91   A 0.12 0.11 31.9 0 0 577.24 712.86   C 576.27 690.97 577.10 666.88 563.23 648.52   C 557.93 641.50 549.16 633.92 544.37 628.71   Z   M 594.15 703.10   C 596.71 707.88 601.52 714.06 607.00 715.28   C 618.40 717.82 629.60 717.97 643.04 718.15   Q 657.41 718.34 665.75 717.01   C 674.40 715.64 681.63 712.67 683.98 703.74   Q 684.07 703.38 683.70 703.44   Q 670.56 705.60 657.27 705.32   C 642.31 704.99 627.40 705.05 612.43 704.97   Q 603.30 704.93 594.42 702.76   Q 593.90 702.63 594.15 703.10   Z   M 593.00 723.52   C 595.28 729.63 600.93 740.14 607.32 742.18   C 621.33 746.64 637.24 746.84 652.19 746.41   C 659.19 746.21 674.43 744.30 679.54 739.04   Q 683.54 734.94 687.65 725.67   Q 687.90 725.12 687.72 724.74   A 0.53 0.53 0.0 0 0 686.92 724.54   Q 681.92 728.28 675.74 729.70   C 661.05 733.08 645.59 732.34 630.62 732.24   C 620.17 732.18 600.68 731.98 593.46 723.25   A 0.27 0.27 0.0 0 0 593.00 723.52   Z   M 604.50 756.93   C 613.29 774.25 640.77 771.10 657.22 769.52   C 663.43 768.92 672.46 765.51 673.44 758.55   Q 673.51 758.06 673.02 758.16   C 658.13 761.44 638.83 760.66 626.19 760.36   Q 615.14 760.11 604.72 756.68   Q 604.30 756.54 604.50 756.93   Z"
     id="path152" />
  <path
     fill="#fdfefc"
     d="   M 430.35 432.11   Q 423.67 428.84 417.05 425.54   C 404.95 419.51 397.59 406.34 396.03 393.39   C 394.82 383.30 398.33 368.25 401.95 359.02   Q 414.97 325.76 438.66 293.61   C 443.88 286.53 449.93 280.55 457.47 277.69   Q 462.68 275.72 468.80 278.19   C 452.87 280.60 445.08 298.66 442.74 312.49   Q 439.67 330.67 441.19 346.74   C 441.29 347.88 440.87 348.62 440.74 349.74   Q 440.64 350.54 441.24 349.99   C 461.90 331.08 489.11 329.23 508.77 351.03   Q 509.15 351.45 509.49 351.00   Q 510.00 350.30 509.58 349.35   C 521.22 336.56 534.28 327.03 548.26 317.03   C 553.43 313.33 571.25 303.50 577.43 305.82   C 587.26 309.52 599.16 313.56 604.58 320.59   Q 607.21 324.00 610.69 326.19   C 612.05 329.61 616.48 336.42 621.02 335.66   C 636.84 333.02 651.55 338.53 663.58 348.92   Q 664.66 349.86 667.02 351.21   Q 667.51 351.49 667.31 350.97   L 666.21 348.06   L 665.02 342.23   C 663.03 326.57 659.18 305.72 649.06 293.46   Q 643.86 287.16 636.01 285.28   Q 617.62 259.92 595.18 244.57   C 554.52 216.74 503.90 210.10 455.43 216.14   Q 449.00 216.94 442.31 218.87   C 431.31 222.05 420.74 224.75 410.56 230.10   Q 404.98 232.05 401.69 235.57   Q 399.79 234.85 399.56 233.87   Q 399.36 233.03 400.72 232.19   Q 418.45 221.14 441.50 212.50   C 519.14 183.40 600.27 219.76 648.58 282.36   C 656.65 292.82 662.28 305.36 670.16 316.38   C 686.40 339.08 696.42 363.00 696.01 390.99   Q 695.81 404.63 693.52 423.78   Q 693.47 424.26 693.00 424.13   Q 676.57 419.53 672.34 418.64   C 644.20 412.71 614.33 414.65 588.06 426.42   C 575.57 432.02 563.00 438.31 552.64 446.91   Q 537.10 459.82 525.50 476.56   Q 525.21 476.98 524.73 476.82   Q 490.46 465.08 458.39 448.41   C 450.95 444.55 443.99 439.76 436.95 435.05   Q 434.28 433.26 430.35 432.11   Z   M 572.96 363.83   Q 574.13 379.90 572.71 395.96   A 1.79 1.78 76.0 0 1 571.92 397.28   C 559.42 405.50 542.50 408.33 531.27 395.74   Q 529.68 393.95 529.80 389.84   A 1.35 1.35 0.0 0 0 529.62 389.13   C 525.78 382.03 515.31 386.17 516.75 394.04   Q 519.63 409.77 534.45 415.56   Q 558.04 424.77 578.97 410.57   Q 579.38 410.29 579.80 410.58   C 586.92 415.46 595.59 418.18 604.24 416.04   C 611.95 414.14 621.85 409.83 626.14 403.07   C 628.65 399.12 632.35 388.18 625.36 386.36   Q 621.65 385.40 618.92 387.83   A 1.20 1.20 0.0 0 0 618.52 388.68   C 618.07 397.25 608.47 401.02 601.27 402.04   Q 598.27 402.46 594.78 400.23   C 591.11 397.88 589.91 396.75 589.98 392.01   Q 590.21 377.75 590.81 363.41   Q 590.84 362.91 591.34 362.86   C 601.97 361.98 614.37 358.38 613.44 344.70   C 611.99 323.48 594.01 315.12 574.45 316.44   C 539.89 318.76 536.52 357.18 572.29 363.10   A 0.80 0.79 2.8 0 1 572.96 363.83   Z"
     id="path154" />
  <path
     fill="#00fefc"
     d="   M 636.01 285.28   Q 628.90 286.19 626.16 288.66   C 616.04 297.77 611.54 312.68 610.69 326.19   Q 607.21 324.00 604.58 320.59   C 599.16 313.56 587.26 309.52 577.43 305.82   C 571.25 303.50 553.43 313.33 548.26 317.03   C 534.28 327.03 521.22 336.56 509.58 349.35   Q 508.44 344.17 507.33 338.78   C 504.75 326.19 500.30 314.15 494.99 302.46   C 490.48 292.55 480.50 278.99 468.80 278.19   Q 462.68 275.72 457.47 277.69   C 449.93 280.55 443.88 286.53 438.66 293.61   Q 414.97 325.76 401.95 359.02   C 398.33 368.25 394.82 383.30 396.03 393.39   C 397.59 406.34 404.95 419.51 417.05 425.54   Q 423.67 428.84 430.35 432.11   C 426.13 433.02 422.14 436.06 422.28 440.60   C 422.38 443.91 426.57 447.98 429.09 449.66   C 457.83 468.80 487.69 480.27 520.55 491.91   C 536.03 497.39 552.86 498.10 564.60 510.99   Q 564.92 511.34 564.74 511.78   C 563.86 513.95 562.38 516.28 562.22 518.53   C 561.28 531.55 573.88 527.69 581.74 530.42   A 1.36 1.34 84.9 0 1 582.47 531.04   Q 585.47 536.57 588.33 542.02   C 590.26 545.70 590.64 548.43 588.22 551.74   C 583.17 558.61 573.64 563.60 565.82 566.59   C 536.39 577.83 502.24 585.85 470.76 580.24   C 459.60 578.26 451.15 590.02 449.01 599.51   C 446.35 611.28 447.54 622.33 447.83 638.00   C 447.99 646.10 448.47 650.87 457.32 653.16   Q 465.42 655.26 473.51 657.38   C 515.05 668.26 555.95 693.46 569.24 736.87   Q 574.00 752.39 575.65 765.81   C 576.87 775.64 576.25 779.49 586.63 782.60   Q 601.63 787.10 616.96 790.36   Q 621.69 791.36 625.76 792.87   C 631.80 795.09 661.31 808.00 658.89 790.51   Q 658.62 788.53 660.50 788.02   Q 661.04 787.88 661.45 788.26   L 664.24 790.79   Q 664.46 790.99 664.51 790.69   Q 664.55 790.50 664.41 790.33   Q 663.24 788.90 661.94 787.53   Q 661.58 787.15 661.87 786.71   C 664.46 782.68 672.08 781.73 675.73 779.47   C 683.60 774.59 689.74 764.06 687.50 754.72   A 1.93 1.92 64.4 0 1 688.19 752.75   C 695.40 747.08 702.25 737.74 702.81 728.21   C 703.64 714.14 704.10 699.60 706.80 685.77   Q 707.68 685.12 708.99 685.24   Q 709.52 685.29 709.64 684.78   C 712.39 673.73 728.34 669.06 737.93 670.07   C 746.00 670.91 749.31 677.83 750.18 685.08   Q 750.29 686.04 750.77 686.21   Q 751.31 686.39 752.29 686.23   C 748.22 712.35 739.77 738.01 727.92 762.42   Q 707.45 804.60 668.80 832.30   Q 666.09 831.62 664.94 828.98   Q 662.05 822.38 658.98 817.97   A 0.66 0.66 0.0 0 0 658.12 817.77   C 636.25 830.17 609.78 836.71 585.01 840.08   Q 564.55 842.86 550.94 843.19   C 485.48 844.76 413.18 812.30 373.54 759.42   C 372.46 757.98 371.04 756.58 369.84 755.16   L 368.62 753.63   Q 368.22 753.13 368.77 752.81   L 374.91 749.14   A 0.71 0.69 71.5 0 0 375.24 748.46   Q 374.97 745.91 373.55 743.72   Q 367.27 734.02 361.89 723.81   Q 345.87 693.37 331.99 661.89   C 320.18 635.08 312.08 608.46 307.25 586.75   C 302.75 566.55 300.08 540.39 296.87 516.57   C 296.40 513.05 296.49 509.74 296.49 506.23   C 298.37 445.72 308.81 385.91 337.37 333.24   C 345.59 318.07 356.25 304.43 368.96 293.45   Q 380.63 283.36 388.59 275.93   C 394.64 270.28 420.86 240.41 411.11 232.34   A 0.96 0.95 -69.5 0 1 410.76 231.56   Q 410.79 230.66 410.56 230.10   C 420.74 224.75 431.31 222.05 442.31 218.87   Q 449.00 216.94 455.43 216.14   C 503.90 210.10 554.52 216.74 595.18 244.57   Q 617.62 259.92 636.01 285.28   Z"
     id="path156" />
  <path
     fill="#ff6e95"
     d="   M 668.68 269.67   C 662.64 276.49 655.60 267.51 652.13 263.03   C 644.82 253.56 636.14 245.12 627.85 236.10   A 1.80 1.80 0.0 0 1 627.78 233.76   Q 629.49 231.63 631.61 228.81   C 641.06 216.22 658.51 214.01 669.37 226.57   C 679.78 238.62 679.19 257.79 668.68 269.67   Z"
     id="path158" />
  <path
     fill="#ff6e95"
     d="   M 338.19 271.31   C 323.64 257.56 332.41 236.13 345.35 224.84   Q 357.47 214.26 372.20 221.29   C 380.05 225.04 383.93 238.21 384.69 245.97   C 385.04 249.58 383.63 251.87 380.94 253.94   Q 368.38 263.63 355.52 272.91   C 349.64 277.16 343.44 276.28 338.19 271.31   Z"
     id="path160" />
  <path
     fill="#01b8fa"
     d="   M 410.56 230.10   Q 410.79 230.66 410.76 231.56   A 0.96 0.95 -69.5 0 0 411.11 232.34   C 420.86 240.41 394.64 270.28 388.59 275.93   Q 380.63 283.36 368.96 293.45   C 356.25 304.43 345.59 318.07 337.37 333.24   C 308.81 385.91 298.37 445.72 296.49 506.23   C 295.94 508.70 295.35 511.09 295.27 513.64   C 294.44 539.10 293.48 564.78 294.17 590.24   C 294.82 614.31 298.41 638.29 303.85 661.73   C 309.13 684.47 316.85 707.09 328.17 727.57   Q 343.11 754.55 361.79 778.65   A 0.75 0.75 0.0 0 0 363.12 778.30   L 365.09 765.66   Q 365.16 765.22 365.02 764.80   Q 364.27 762.56 365.45 760.48   A 1.56 1.54 -38.8 0 0 365.59 759.29   Q 364.79 756.61 367.13 755.21   Q 367.65 754.89 368.09 755.32   L 368.90 756.13   Q 369.02 756.25 369.01 756.08   Q 369.00 755.89 369.01 755.69   Q 369.04 755.40 369.33 755.38   Q 369.62 755.36 369.84 755.16   C 371.04 756.58 372.46 757.98 373.54 759.42   C 413.18 812.30 485.48 844.76 550.94 843.19   Q 564.55 842.86 585.01 840.08   C 609.78 836.71 636.25 830.17 658.12 817.77   A 0.66 0.66 0.0 0 1 658.98 817.97   Q 662.05 822.38 664.94 828.98   Q 666.09 831.62 668.80 832.30   C 614.64 869.97 544.72 875.68 481.25 867.97   C 429.39 861.67 381.31 835.89 348.30 795.20   C 340.45 785.52 333.03 776.43 326.65 766.37   Q 314.82 747.71 305.26 727.75   Q 302.53 722.06 294.79 700.74   C 289.98 687.51 287.25 675.43 284.16 660.23   Q 279.01 634.90 277.43 613.81   Q 274.05 568.54 275.00 536.50   Q 275.42 522.05 278.16 492.03   C 282.39 445.74 292.11 399.76 311.61 358.52   C 317.24 346.63 326.13 332.95 332.42 323.43   Q 343.44 306.77 357.95 293.25   C 366.70 285.10 379.42 276.78 388.92 269.42   C 400.17 260.72 406.39 249.95 401.69 235.57   Q 404.98 232.05 410.56 230.10   Z"
     id="path162" />
  <path
     fill="#290f54"
     d="   M 468.80 278.19   C 480.50 278.99 490.48 292.55 494.99 302.46   C 500.30 314.15 504.75 326.19 507.33 338.78   Q 508.44 344.17 509.58 349.35   Q 510.00 350.30 509.49 351.00   Q 509.15 351.45 508.77 351.03   C 489.11 329.23 461.90 331.08 441.24 349.99   Q 440.64 350.54 440.74 349.74   C 440.87 348.62 441.29 347.88 441.19 346.74   Q 439.67 330.67 442.74 312.49   C 445.08 298.66 452.87 280.60 468.80 278.19   Z   M 454.12 326.71   C 461.25 320.97 476.43 322.71 484.99 322.88   Q 485.43 322.89 485.37 322.45   Q 483.27 306.85 472.33 295.94   C 470.75 294.36 468.72 293.97 466.75 295.34   C 458.36 301.18 457.58 310.72 456.45 319.69   C 456.08 322.56 455.52 324.37 453.77 326.35   A 0.25 0.25 0.0 0 0 454.12 326.71   Z"
     id="path164" />
  <path
     fill="#290f54"
     d="   M 636.01 285.28   Q 643.86 287.16 649.06 293.46   C 659.18 305.72 663.03 326.57 665.02 342.23   Q 664.85 345.62 666.21 348.06   L 667.31 350.97   Q 667.51 351.49 667.02 351.21   Q 664.66 349.86 663.58 348.92   C 651.55 338.53 636.84 333.02 621.02 335.66   C 616.48 336.42 612.05 329.61 610.69 326.19   C 611.54 312.68 616.04 297.77 626.16 288.66   Q 628.90 286.19 636.01 285.28   Z   M 622.31 322.60   C 629.61 321.18 637.03 321.28 644.10 323.44   Q 644.60 323.59 644.54 323.07   C 643.80 316.60 640.98 305.71 635.79 301.50   A 1.29 1.29 0.0 0 0 634.92 301.21   C 629.09 301.41 624.31 317.80 622.04 322.24   Q 621.81 322.70 622.31 322.60   Z"
     id="path166" />
  <path
     fill="#fdfefc"
     d="   M 484.99 322.88   C 476.43 322.71 461.25 320.97 454.12 326.71   A 0.25 0.25 0.0 0 1 453.77 326.35   C 455.52 324.37 456.08 322.56 456.45 319.69   C 457.58 310.72 458.36 301.18 466.75 295.34   C 468.72 293.97 470.75 294.36 472.33 295.94   Q 483.27 306.85 485.37 322.45   Q 485.43 322.89 484.99 322.88   Z"
     id="path168" />
  <path
     fill="#fdfefc"
     d="   M 644.10 323.44   C 637.03 321.28 629.61 321.18 622.31 322.60   Q 621.81 322.70 622.04 322.24   C 624.31 317.80 629.09 301.41 634.92 301.21   A 1.29 1.29 0.0 0 1 635.79 301.50   C 640.98 305.71 643.80 316.60 644.54 323.07   Q 644.60 323.59 644.10 323.44   Z"
     id="path170" />
  <path
     fill="#290f54"
     d="   M 572.29 363.10   C 536.52 357.18 539.89 318.76 574.45 316.44   C 594.01 315.12 611.99 323.48 613.44 344.70   C 614.37 358.38 601.97 361.98 591.34 362.86   Q 590.84 362.91 590.81 363.41   Q 590.21 377.75 589.98 392.01   C 589.91 396.75 591.11 397.88 594.78 400.23   Q 598.27 402.46 601.27 402.04   C 608.47 401.02 618.07 397.25 618.52 388.68   A 1.20 1.20 0.0 0 1 618.92 387.83   Q 621.65 385.40 625.36 386.36   C 632.35 388.18 628.65 399.12 626.14 403.07   C 621.85 409.83 611.95 414.14 604.24 416.04   C 595.59 418.18 586.92 415.46 579.80 410.58   Q 579.38 410.29 578.97 410.57   Q 558.04 424.77 534.45 415.56   Q 519.63 409.77 516.75 394.04   C 515.31 386.17 525.78 382.03 529.62 389.13   A 1.35 1.35 0.0 0 1 529.80 389.84   Q 529.68 393.95 531.27 395.74   C 542.50 408.33 559.42 405.50 571.92 397.28   A 1.79 1.78 76.0 0 0 572.71 395.96   Q 574.13 379.90 572.96 363.83   A 0.80 0.79 2.8 0 0 572.29 363.10   Z   M 565.69 341.56   Q 576.61 349.72 588.87 345.22   C 591.50 344.24 597.53 340.37 594.65 336.83   C 589.14 330.07 578.15 329.34 570.32 330.75   C 566.79 331.39 564.59 333.58 562.81 336.47   A 1.24 1.22 53.8 0 0 562.67 337.44   Q 563.35 339.82 565.69 341.56   Z"
     id="path172" />
  <path
     fill="#ff6e95"
     d="   M 565.69 341.56   Q 563.35 339.82 562.67 337.44   A 1.24 1.22 53.8 0 1 562.81 336.47   C 564.59 333.58 566.79 331.39 570.32 330.75   C 578.15 329.34 589.14 330.07 594.65 336.83   C 597.53 340.37 591.50 344.24 588.87 345.22   Q 576.61 349.72 565.69 341.56   Z"
     id="path174" />
  <path
     fill="#ff6e95"
     d="   M 665.02 342.23   L 666.21 348.06   Q 664.85 345.62 665.02 342.23   Z"
     id="path176" />
  <path
     fill="#fdfefc"
     d="   M 755.83 544.88   L 755.60 541.73   L 752.03 518.27   L 751.05 515.26   Q 749.61 507.38 745.71 499.96   C 744.82 498.55 744.57 496.83 743.68 495.39   Q 737.85 485.95 731.43 476.89   C 729.43 474.06 726.87 472.77 723.63 474.17   A 0.90 0.90 0.0 0 0 723.27 475.55   Q 733.98 489.44 742.19 503.92   C 740.56 509.99 737.88 513.07 735.68 518.22   A 1.58 1.58 0.0 0 1 732.84 518.35   C 716.39 488.24 696.77 456.26 663.43 442.11   C 654.15 438.17 640.58 435.46 630.68 434.34   C 616.14 432.69 598.47 440.05 585.84 445.31   Q 585.36 445.51 585.15 445.27   Q 584.95 445.04 584.74 444.53   C 619.59 428.19 658.05 425.31 693.62 442.10   C 715.82 452.59 732.37 472.26 744.24 493.28   C 752.98 508.75 757.80 526.17 761.37 543.46   Q 761.47 543.97 760.96 544.05   L 755.83 544.88   Z"
     id="path180" />
  <path
     fill="#f8b701"
     d="   M 742.19 503.92   Q 743.48 503.36 745.71 499.96   Q 749.61 507.38 751.05 515.26   Q 750.62 518.49 752.03 518.27   L 755.60 541.73   Q 755.62 543.28 755.00 543.49   C 749.95 545.22 743.71 547.90 740.65 552.52   Q 738.05 556.45 735.31 560.22   Q 734.72 561.02 735.29 561.83   Q 735.63 562.33 736.09 562.25   C 728.61 575.96 727.18 595.25 739.89 606.55   A 1.68 1.68 0.0 0 1 739.93 609.03   Q 722.97 625.15 707.14 641.39   Q 688.09 660.94 689.12 688.49   Q 689.14 689.00 688.63 689.04   C 675.35 690.15 662.53 691.90 648.70 690.94   Q 648.21 690.90 648.21 690.41   L 648.34 655.45   C 652.56 654.51 647.64 649.43 652.07 646.37   Q 671.24 633.12 690.84 620.54   C 702.71 612.93 713.66 603.73 722.03 592.68   C 730.48 581.52 728.77 562.25 727.68 549.26   Q 727.33 545.04 724.54 543.54   C 724.97 516.22 704.23 490.93 682.34 476.94   Q 681.96 476.28 682.13 475.42   Q 682.23 474.93 681.88 474.58   Q 677.14 469.88 672.33 462.16   C 664.18 449.09 652.03 444.49 636.41 444.04   Q 610.19 443.30 585.72 452.56   C 573.57 457.16 564.55 464.00 556.34 473.60   Q 554.76 475.46 551.04 478.53   C 549.06 480.17 548.39 482.16 547.08 484.32   L 541.62 482.78   A 0.66 0.66 0.0 0 1 541.21 481.83   C 550.01 465.60 568.53 452.65 584.74 444.53   Q 584.95 445.04 585.15 445.27   Q 585.36 445.51 585.84 445.31   C 598.47 440.05 616.14 432.69 630.68 434.34   C 640.58 435.46 654.15 438.17 663.43 442.11   C 696.77 456.26 716.39 488.24 732.84 518.35   A 1.58 1.58 0.0 0 0 735.68 518.22   C 737.88 513.07 740.56 509.99 742.19 503.92   Z"
     id="path182" />
  <path
     fill="#fcc838"
     d="   M 682.34 476.94   C 677.44 474.46 672.33 471.66 667.47 470.00   C 642.76 461.60 616.34 468.38 598.89 487.91   Q 596.29 490.82 594.05 495.97   Q 593.87 496.39 594.32 496.46   C 615.04 499.31 637.78 503.30 656.94 511.58   Q 672.87 518.47 682.61 533.66   C 673.53 531.60 664.56 532.92 662.85 543.45   L 649.98 545.45   C 647.42 529.20 624.62 527.56 621.90 545.02   Q 614.39 545.87 614.30 537.23   Q 614.29 535.97 612.65 531.79   Q 612.50 531.40 612.12 531.56   L 611.36 531.87   C 608.60 520.43 598.70 499.88 585.96 496.96   Q 570.29 493.37 565.40 491.15   Q 556.59 487.14 547.08 484.32   C 548.39 482.16 549.06 480.17 551.04 478.53   Q 554.76 475.46 556.34 473.60   C 564.55 464.00 573.57 457.16 585.72 452.56   Q 610.19 443.30 636.41 444.04   C 652.03 444.49 664.18 449.09 672.33 462.16   Q 677.14 469.88 681.88 474.58   Q 682.23 474.93 682.13 475.42   Q 681.96 476.28 682.34 476.94   Z"
     id="path184" />
  <path
     fill="#fdfefc"
     d="   M 682.34 476.94   C 704.23 490.93 724.97 516.22 724.54 543.54   C 721.64 562.26 716.11 575.44 698.98 585.13   C 692.57 588.76 683.55 590.63 679.05 594.29   C 669.27 602.23 659.98 616.76 651.69 627.93   Q 649.76 630.53 649.35 632.77   Q 649.28 633.17 648.89 633.30   L 648.27 633.51   L 648.26 615.60   A 6.01 5.96 -26.8 0 1 649.46 612.01   C 661.22 596.34 672.82 580.20 684.82 564.57   Q 685.82 563.25 687.46 563.22   Q 687.93 563.21 688.07 562.77   C 689.21 559.27 687.74 555.67 686.81 552.38   Q 686.67 551.88 687.18 551.81   Q 689.08 551.58 689.29 549.35   Q 690.28 538.88 682.61 533.66   Q 672.87 518.47 656.94 511.58   C 637.78 503.30 615.04 499.31 594.32 496.46   Q 593.87 496.39 594.05 495.97   Q 596.29 490.82 598.89 487.91   C 616.34 468.38 642.76 461.60 667.47 470.00   C 672.33 471.66 677.44 474.46 682.34 476.94   Z"
     id="path188" />
  <path
     fill="#fcc838"
     d="   M 745.71 499.96   Q 743.48 503.36 742.19 503.92   Q 733.98 489.44 723.27 475.55   A 0.90 0.90 0.0 0 1 723.63 474.17   C 726.87 472.77 729.43 474.06 731.43 476.89   Q 737.85 485.95 743.68 495.39   C 744.57 496.83 744.82 498.55 745.71 499.96   Z"
     id="path192" />
  <path
     fill="#01d4ff"
     d="   M 296.49 506.23   C 296.49 509.74 296.40 513.05 296.87 516.57   C 300.08 540.39 302.75 566.55 307.25 586.75   C 312.08 608.46 320.18 635.08 331.99 661.89   Q 345.87 693.37 361.89 723.81   Q 367.27 734.02 373.55 743.72   Q 374.97 745.91 375.24 748.46   A 0.71 0.69 71.5 0 1 374.91 749.14   L 368.77 752.81   Q 368.22 753.13 368.62 753.63   L 369.84 755.16   Q 369.62 755.36 369.33 755.38   Q 369.04 755.40 369.01 755.69   Q 369.00 755.89 369.01 756.08   Q 369.02 756.25 368.90 756.13   L 368.09 755.32   Q 367.65 754.89 367.13 755.21   Q 364.79 756.61 365.59 759.29   A 1.56 1.54 -38.8 0 1 365.45 760.48   Q 364.27 762.56 365.02 764.80   Q 365.16 765.22 365.09 765.66   L 363.12 778.30   A 0.75 0.75 0.0 0 1 361.79 778.65   Q 343.11 754.55 328.17 727.57   C 316.85 707.09 309.13 684.47 303.85 661.73   C 298.41 638.29 294.82 614.31 294.17 590.24   C 293.48 564.78 294.44 539.10 295.27 513.64   C 295.35 511.09 295.94 508.70 296.49 506.23   Z"
     id="path194" />
  <path
     fill="#fcc838"
     d="   M 751.05 515.26   L 752.03 518.27   Q 750.62 518.49 751.05 515.26   Z"
     id="path196" />
  <path
     fill="#fdfefc"
     d="   M 621.90 545.02   Q 620.66 552.00 627.30 553.70   A 1.04 1.04 0.0 0 1 627.87 555.35   L 617.57 568.73   Q 617.24 569.15 616.94 568.71   Q 612.12 561.60 608.58 553.76   Q 608.36 553.27 608.66 552.83   Q 614.96 543.64 611.36 531.87   L 612.12 531.56   Q 612.50 531.40 612.65 531.79   Q 614.29 535.97 614.30 537.23   Q 614.39 545.87 621.90 545.02   Z"
     id="path198" />
  <path
     fill="#fcc838"
     d="   M 755.60 541.73   L 755.83 544.88   C 746.32 547.64 740.64 553.70 736.09 562.25   Q 735.63 562.33 735.29 561.83   Q 734.72 561.02 735.31 560.22   Q 738.05 556.45 740.65 552.52   C 743.71 547.90 749.95 545.22 755.00 543.49   Q 755.62 543.28 755.60 541.73   Z"
     id="path200" />
  <path
     fill="#fdfefc"
     d="   M 662.85 543.45   Q 662.22 550.59 669.39 554.21   Q 669.86 554.45 669.64 554.93   Q 665.88 562.91 660.22 569.64   Q 659.83 570.11 659.38 569.70   Q 651.49 562.62 646.42 553.28   Q 645.99 552.50 646.87 552.67   Q 648.54 553.00 650.00 552.12   Q 650.48 551.83 650.43 551.27   L 649.98 545.45   L 662.85 543.45   Z"
     id="path202" />
  <path
     fill="#fcc838"
     d="   M 724.54 543.54   Q 727.33 545.04 727.68 549.26   C 728.77 562.25 730.48 581.52 722.03 592.68   C 713.66 603.73 702.71 612.93 690.84 620.54   Q 671.24 633.12 652.07 646.37   C 647.64 649.43 652.56 654.51 648.34 655.45   L 648.27 633.51   L 648.89 633.30   Q 649.28 633.17 649.35 632.77   Q 649.76 630.53 651.69 627.93   C 659.98 616.76 669.27 602.23 679.05 594.29   C 683.55 590.63 692.57 588.76 698.98 585.13   C 716.11 575.44 721.64 562.26 724.54 543.54   Z"
     id="path204" />
  <path
     fill="#00fefc"
     d="   M 758.37 599.20   Q 764.69 588.79 770.21 576.27   Q 770.71 575.13 769.56 574.67   C 765.59 573.07 759.33 569.53 756.92 565.46   Q 756.61 564.93 756.15 565.34   Q 753.83 567.43 753.23 566.18   Q 763.92 558.35 778.24 558.46   C 787.05 558.52 794.62 568.17 797.44 575.56   C 799.18 580.12 798.28 585.21 796.89 589.98   C 791.66 607.84 771.11 606.01 758.37 599.20   Z"
     id="path206" />
  <path
     fill="#01d4ff"
     d="   M 758.37 599.20   Q 750.37 594.01 746.50 586.22   C 743.54 580.27 749.10 570.72 753.23 566.18   Q 753.83 567.43 756.15 565.34   Q 756.61 564.93 756.92 565.46   C 759.33 569.53 765.59 573.07 769.56 574.67   Q 770.71 575.13 770.21 576.27   Q 764.69 588.79 758.37 599.20   Z"
     id="path208" />
  <path
     fill="#fdfefc"
     d="   M 630.79 629.94   Q 622.93 619.72 615.64 609.77   C 605.64 596.12 595.04 586.24 581.14 577.55   Q 582.45 575.13 585.07 573.79   Q 591.48 570.50 595.68 566.62   Q 596.10 566.23 596.35 566.74   C 597.15 568.34 597.95 569.53 599.19 570.88   C 611.88 584.71 620.54 598.21 630.56 613.05   A 4.16 4.15 -61.2 0 1 631.27 615.50   L 630.79 629.94   Z"
     id="path210" />
  <path
     fill="#fdfefc"
     d="   M 652.93 582.56   Q 653.42 582.80 653.09 583.24   L 640.58 599.98   Q 640.33 600.33 640.11 599.95   Q 633.77 588.96 625.25 579.50   Q 624.32 578.47 625.52 577.76   C 629.69 575.27 633.79 572.88 635.85 568.41   Q 636.10 567.86 636.51 568.30   C 641.02 573.09 647.05 579.63 652.93 582.56   Z"
     id="path212" />
  <path
     fill="#fcc838"
     d="   M 581.14 577.55   C 595.04 586.24 605.64 596.12 615.64 609.77   Q 622.93 619.72 630.79 629.94   L 631.37 644.20   C 612.37 638.98 591.60 627.68 576.27 615.20   C 567.95 608.44 558.42 599.87 552.50 590.92   A 1.56 1.53 65.6 0 0 550.81 590.27   L 539.98 593.16   Q 539.43 593.31 539.21 593.83   Q 538.72 595.04 537.96 595.71   Q 536.76 593.55 534.64 592.31   Q 534.13 592.01 534.72 591.92   Q 547.82 589.78 560.41 585.74   C 566.71 583.72 574.10 580.10 581.14 577.55   Z"
     id="path214" />
  <path
     fill="#f8b701"
     d="   M 631.37 644.20   L 631.59 690.61   Q 631.59 691.14 631.06 691.16   Q 611.66 691.84 592.64 688.10   A 0.84 0.84 0.0 0 1 591.97 687.25   C 592.51 670.93 588.65 653.15 577.44 641.06   C 563.71 626.26 550.41 613.17 537.96 595.71   Q 538.72 595.04 539.21 593.83   Q 539.43 593.31 539.98 593.16   L 550.81 590.27   A 1.56 1.53 65.6 0 1 552.50 590.92   C 558.42 599.87 567.95 608.44 576.27 615.20   C 591.60 627.68 612.37 638.98 631.37 644.20   Z"
     id="path216" />
  <path
     fill="#00aafe"
     d="   M 544.37 628.71   C 549.16 633.92 557.93 641.50 563.23 648.52   C 577.10 666.88 576.27 690.97 577.24 712.86   A 0.12 0.11 31.9 0 1 577.02 712.91   Q 575.69 709.85 573.63 707.11   C 563.42 693.47 553.21 681.60 540.54 671.97   Q 533.51 666.61 521.52 659.63   C 504.22 649.56 485.82 643.31 466.04 639.43   A 1.25 1.25 0.0 0 1 465.03 638.25   Q 464.50 624.37 465.11 610.01   Q 465.37 604.07 467.11 600.25   A 1.51 1.50 88.8 0 1 467.81 599.52   Q 469.80 598.52 471.00 598.58   Q 494.89 599.73 518.42 596.03   A 0.44 0.43 -20.2 0 1 518.85 596.22   Q 530.39 613.51 544.37 628.71   Z"
     id="path218" />
  <path
     fill="#01b8fa"
     d="   M 752.29 686.23   Q 751.31 686.39 750.77 686.21   Q 750.29 686.04 750.18 685.08   C 749.31 677.83 746.00 670.91 737.93 670.07   C 728.34 669.06 712.39 673.73 709.64 684.78   Q 709.52 685.29 708.99 685.24   Q 707.68 685.12 706.80 685.77   Q 709.28 673.18 712.23 666.02   C 718.97 649.65 735.04 635.51 748.71 623.96   C 750.98 622.04 751.76 619.24 755.59 620.35   Q 756.12 620.51 756.15 621.07   Q 757.95 653.94 752.29 686.23   Z"
     id="path220" />
  <path
     fill="#fdfefc"
     d="   M 607.00 715.28   C 601.52 714.06 596.71 707.88 594.15 703.10   Q 593.90 702.63 594.42 702.76   Q 603.30 704.93 612.43 704.97   C 627.40 705.05 642.31 704.99 657.27 705.32   Q 670.56 705.60 683.70 703.44   Q 684.07 703.38 683.98 703.74   C 681.63 712.67 674.40 715.64 665.75 717.01   Q 657.41 718.34 643.04 718.15   C 629.60 717.97 618.40 717.82 607.00 715.28   Z"
     id="path222" />
  <path
     fill="#fdfefc"
     d="   M 607.32 742.18   C 600.93 740.14 595.28 729.63 593.00 723.52   A 0.27 0.27 0.0 0 1 593.46 723.25   C 600.68 731.98 620.17 732.18 630.62 732.24   C 645.59 732.34 661.05 733.08 675.74 729.70   Q 681.92 728.28 686.92 724.54   A 0.53 0.53 0.0 0 1 687.72 724.74   Q 687.90 725.12 687.65 725.67   Q 683.54 734.94 679.54 739.04   C 674.43 744.30 659.19 746.21 652.19 746.41   C 637.24 746.84 621.33 746.64 607.32 742.18   Z"
     id="path224" />
  <path
     fill="#fdfefc"
     d="   M 657.22 769.52   C 640.77 771.10 613.29 774.25 604.50 756.93   Q 604.30 756.54 604.72 756.68   Q 615.14 760.11 626.19 760.36   C 638.83 760.66 658.13 761.44 673.02 758.16   Q 673.51 758.06 673.44 758.55   C 672.46 765.51 663.43 768.92 657.22 769.52   Z"
     id="path226" />
</svg>
